<?xml version="1.0" encoding="UTF-8"?> <svg xmlns="http://www.w3.org/2000/svg" width="1080" height="720" viewBox="0 0 1080 720" fill="none"><rect width="1080" height="720" fill="#F2F2F2"></rect><path d="M900 0H180V720H900V0Z" fill="#F2F2F2"></path><path d="M316.522 634.965C321.265 634.965 324.604 634.753 326.565 634.303C328.526 633.852 330.513 633.163 332.501 632.156C334.488 631.149 336.025 630.169 337.059 629.109C338.569 627.678 339.761 625.876 340.609 623.73C341.457 621.583 341.881 619.198 341.881 616.601C341.881 612.944 340.954 609.871 339.125 607.38C337.271 604.889 334.806 603.246 331.679 602.398C336.979 598.98 339.629 594.66 339.629 589.387C339.629 583.928 337.297 579.768 332.66 576.933C329.082 574.733 323.518 573.647 315.966 573.647H285.598V634.965H316.522ZM311.461 587.453C314.296 587.453 316.178 587.585 317.025 587.824C318.218 588.168 319.172 588.778 319.887 589.705C320.603 590.632 320.974 591.692 320.974 592.885C320.974 594.475 320.364 595.747 319.145 596.754C317.926 597.761 315.754 598.264 312.653 598.264H305.048V587.453H311.461V587.453ZM313.236 609.314C317.211 609.314 319.834 609.818 321.106 610.798C322.378 611.779 323.014 613.183 323.014 615.011C323.014 616.866 322.378 618.324 321.08 619.357C319.781 620.391 317.184 620.921 313.263 620.921H305.074V609.314H313.236ZM374.74 609.314C374.74 613.713 375.031 616.972 375.588 619.066C376.489 622.378 377.734 625.054 379.298 627.042C380.861 629.029 382.796 630.752 385.127 632.209C387.459 633.667 390.215 634.78 393.395 635.548C396.575 636.316 400.338 636.687 404.684 636.687C408.393 636.687 411.838 636.316 415.018 635.574C418.198 634.833 420.927 633.72 423.286 632.289C425.618 630.831 427.605 629.109 429.222 627.095C430.838 625.081 432.004 622.776 432.719 620.152C433.435 617.529 433.779 613.978 433.779 609.473V573.673H413.746V611.434C413.746 614.932 412.925 617.476 411.308 619.066C409.692 620.656 407.387 621.451 404.419 621.451C402.378 621.451 400.576 621.053 399.013 620.258C397.423 619.463 396.337 618.403 395.727 617.131C395.118 615.859 394.826 613.951 394.826 611.461V573.7H374.793V609.314H374.74ZM487.122 634.965V613.633H494.939C497.509 613.633 499.417 613.925 500.689 614.508C501.961 615.091 502.915 615.965 503.551 617.105C504.187 618.244 504.505 619.861 504.531 621.954L504.664 626.485C504.743 630.487 505.061 633.322 505.644 634.965H526.022V633.057C525.28 633.004 524.776 632.792 524.511 632.421C524.273 632.156 524.14 631.335 524.087 629.93L523.796 620.258C523.69 615.939 522.921 612.891 521.517 611.063C520.113 609.235 517.436 607.592 513.488 606.108C515.396 605.604 516.986 604.862 518.231 603.908C520.007 602.557 521.385 600.835 522.338 598.741C523.319 596.648 523.796 594.077 523.796 591.003C523.796 588.513 523.478 586.446 522.842 584.803C522.206 583.133 521.252 581.57 519.98 580.086C518.708 578.602 517.145 577.383 515.29 576.429C513.435 575.475 511.103 574.76 508.268 574.309C505.432 573.859 501.908 573.62 497.695 573.62H467.724V634.939H487.122V634.965ZM487.122 588.407H496.979C500.026 588.407 502.146 588.91 503.365 589.944C504.584 590.977 505.194 592.408 505.194 594.263C505.194 596.065 504.558 597.496 503.286 598.582C502.014 599.642 499.841 600.199 496.741 600.199H487.148V588.407H487.122ZM554.005 589.785H572.13V634.965H592.163V589.785H610.288V573.647H554.005V589.785ZM699.589 620.099C701.948 615.223 703.14 609.685 703.14 603.564C703.14 597.284 701.789 591.719 699.112 586.896C696.436 582.073 692.541 578.39 687.453 575.846C682.365 573.302 676.8 572.03 670.732 572.03C667.552 572.03 664.505 572.401 661.59 573.143C658.675 573.885 655.972 574.945 653.508 576.323C651.017 577.701 648.632 579.635 646.353 582.206C644.048 584.75 642.246 587.877 640.894 591.613C639.543 595.323 638.854 599.536 638.854 604.2C638.854 613.978 641.795 621.822 647.652 627.704C653.508 633.587 661.351 636.555 671.156 636.555C678.125 636.555 684.008 635.044 688.831 631.997C693.627 628.95 697.204 625.001 699.589 620.099ZM662.623 617.714C660 614.481 658.701 609.977 658.701 604.226C658.701 600.384 659.285 597.178 660.424 594.581C661.563 591.984 663.1 590.049 665.061 588.804C666.996 587.559 669.063 586.949 671.262 586.949C673.223 586.949 674.998 587.4 676.562 588.301C678.125 589.202 679.371 590.314 680.298 591.639C681.226 592.964 681.968 594.713 682.524 596.86C683.08 599.006 683.345 601.47 683.345 604.226C683.345 608.069 682.789 611.302 681.649 613.978C680.51 616.654 679.026 618.536 677.118 619.702C675.237 620.868 673.143 621.424 670.865 621.424C667.42 621.424 664.664 620.205 662.623 617.714ZM754.574 634.965V602.928L775.243 634.965H794.376V573.647H775.111V606.479L753.991 573.647H735.283V634.965H754.574Z" fill="black"></path><path d="M643.942 255.634C649.983 253.541 658.675 248.347 666.651 245.962C671.395 244.558 676.456 246.651 678.443 251.182C678.443 251.182 704.73 306.088 731.971 369.341C761.756 438.556 792.786 516.727 793.687 518.821C795.065 521.974 794.005 525.472 791.461 527.168C787.91 529.526 784.306 527.963 782.239 525.366C782.239 525.366 745.883 463.491 732.925 442.265C730.195 437.814 723.041 438.953 721.954 444.226C719.675 455.329 717.768 472.58 712.786 484.16C711.54 487.075 708.175 488.241 705.366 486.73C698.609 483.127 692.885 477.853 688.725 471.441L687.135 468.976C684.352 464.683 682.286 459.967 681.014 455.011L677.516 441.523C677.039 439.722 676.323 438.026 675.634 436.303C674.309 433.017 671.474 427.055 669.884 424.167C667.605 420.059 661.802 420.086 660 424.405L655.601 435.005C653.481 440.146 649.03 443.988 643.65 445.419C640.391 446.293 638.854 446.479 636.602 446.929C634.694 447.3 633.13 448.652 632.521 450.48C630.745 455.753 627.777 464.895 625.419 470.301C623.882 473.799 619.934 474.621 616.754 472.527C612.249 469.586 609.414 466.114 606.658 463.571C599.662 457.158 594.574 448.943 592.534 439.669L588.056 419.503C587.049 414.919 585.194 410.599 583.047 406.439C579.974 400.45 574.356 390.381 570.911 384.736C567.678 379.463 560.894 380.258 560.073 386.432C558.483 398.489 554.773 417.357 551.514 426.79C549.314 433.15 544.174 431.56 541.789 428.857C540.702 427.612 536.674 421.517 535.508 420.006C532.302 415.899 523.028 413.965 520.033 429.149C517.463 442.292 511.342 462.272 507.314 472.819C505.538 477.456 499.894 478.33 497.271 474.091C492.13 465.743 486.088 453.024 482.352 446.002C479.702 440.993 474.588 437.787 468.917 437.575L466.4 437.469C460.252 437.231 454.82 433.468 452.408 427.824L444.299 408.797C443.346 406.571 441.65 404.717 439.503 403.604L432.083 399.682C426.227 396.581 421.086 392.315 416.979 387.121L412.951 382.14C407.387 373.739 397.635 374.773 394.773 386.247C391.328 400 381.1 433.282 376.727 443.961C375.164 447.751 370.845 448.917 367.797 446.161C361.756 440.702 359.106 431.321 353.753 427.85C349.937 425.386 345.697 426.525 343.975 429.811C331.785 453.156 298.37 524.624 298.37 524.624C295.985 528.784 290.712 528.943 288.486 526.876C284.962 523.643 285.439 519.589 286.578 516.462C286.578 516.462 311.593 429.811 321.159 401.033C331.732 369.208 345.459 333.912 345.459 333.912C347.34 328.241 351.501 323.604 356.959 321.166L365.942 317.111C370.792 314.938 374.634 311.043 376.727 306.167C382.849 292.017 394.959 263.849 401.239 249.327C402.776 245.777 405.956 243.233 409.745 242.491C414.674 241.537 419.656 240.45 422.915 239.682C427.261 238.675 430.944 235.786 433.09 231.865L485.346 136.124C487.387 132.388 490.831 129.632 494.939 128.466L507.128 124.995C510.202 124.12 512.878 122.133 514.627 119.457L535.27 87.499C537.363 84.2661 542.054 84.1601 544.253 87.34C555.224 103.239 575.654 143.412 591.792 173.567C606.684 201.444 622.902 236.661 630.268 250.149C632.892 255.131 638.695 257.463 643.942 255.634Z" fill="black"></path></svg> 